<svg xmlns="http://www.w3.org/2000/svg" width="86" height="77" viewBox="0 0 86 77" fill="none">
  <g filter="url(#filter0_ddi_1_1195)">
    <path fill-rule="evenodd" clip-rule="evenodd" d="M64.4236 37.9076L47.2865 55.8935L36.4819 52.5453L36.4819 52.5453L25.5502 49.1577L21.5866 24.633L33.2542 32.8391L45.8628 21.8238L45.9267 21.6176L45.9583 21.7404L46.0537 21.657L45.9899 21.8631L50.1602 38.078L64.4236 37.9076Z" fill="#59FFFB"/>
    <path d="M47.2865 55.8935L47.2303 56.0749C47.2992 56.0963 47.3742 56.0767 47.424 56.0245L47.2865 55.8935ZM64.4236 37.9076L64.5611 38.0386C64.6138 37.9833 64.6282 37.9018 64.5977 37.8317C64.5672 37.7617 64.4977 37.7167 64.4213 37.7176L64.4236 37.9076ZM36.4819 52.5453L36.5381 52.3638C36.49 52.3489 36.4379 52.3538 36.3933 52.3772C36.3488 52.4007 36.3154 52.4409 36.3004 52.489L36.4819 52.5453ZM36.4819 52.5453L36.4256 52.7267C36.5258 52.7578 36.6322 52.7017 36.6633 52.6015L36.4819 52.5453ZM25.5502 49.1577L25.3627 49.188C25.3742 49.2592 25.4251 49.3178 25.494 49.3391L25.5502 49.1577ZM21.5866 24.633L21.6959 24.4776C21.6334 24.4337 21.5507 24.4315 21.4859 24.472C21.4211 24.5125 21.3869 24.5879 21.3991 24.6633L21.5866 24.633ZM33.2542 32.8391L33.1449 32.9944C33.2165 33.0448 33.3133 33.0397 33.3792 32.9821L33.2542 32.8391ZM45.8628 21.8238L45.9878 21.9668C46.0143 21.9437 46.0338 21.9136 46.0443 21.88L45.8628 21.8238ZM45.9267 21.6176L46.1107 21.5703C46.0895 21.488 46.0163 21.4298 45.9314 21.4277C45.8464 21.4257 45.7705 21.4803 45.7453 21.5614L45.9267 21.6176ZM45.9583 21.7404L45.7744 21.7877C45.7908 21.8515 45.8391 21.9023 45.9021 21.9218C45.965 21.9413 46.0336 21.9268 46.0833 21.8834L45.9583 21.7404ZM46.0537 21.657L46.2352 21.7132C46.2603 21.6321 46.2285 21.5441 46.1573 21.4978C46.0861 21.4515 45.9928 21.4581 45.9288 21.514L46.0537 21.657ZM45.9899 21.8631L45.8084 21.8069C45.798 21.8405 45.7972 21.8764 45.8059 21.9104L45.9899 21.8631ZM50.1602 38.078L49.9763 38.1253C49.9981 38.2101 50.075 38.2689 50.1625 38.2679L50.1602 38.078ZM47.424 56.0245L64.5611 38.0386L64.2861 37.7765L47.149 55.7625L47.424 56.0245ZM36.4256 52.7267L47.2303 56.0749L47.3427 55.7121L36.5381 52.3638L36.4256 52.7267ZM36.3004 52.489L36.3004 52.4891L36.6633 52.6015L36.6633 52.6015L36.3004 52.489ZM36.5381 52.3639L25.6064 48.9763L25.494 49.3391L36.4256 52.7267L36.5381 52.3639ZM25.7377 49.1274L21.7741 24.6027L21.3991 24.6633L25.3627 49.188L25.7377 49.1274ZM21.4774 24.7883L33.1449 32.9944L33.3635 32.6837L21.6959 24.4776L21.4774 24.7883ZM33.3792 32.9821L45.9878 21.9668L45.7379 21.6808L33.1292 32.696L33.3792 32.9821ZM45.7453 21.5614L45.6814 21.7676L46.0443 21.88L46.1081 21.6738L45.7453 21.5614ZM46.1423 21.6931L46.1107 21.5703L45.7428 21.6649L45.7744 21.7877L46.1423 21.6931ZM46.0833 21.8834L46.1787 21.8001L45.9288 21.514L45.8333 21.5974L46.0833 21.8834ZM45.8723 21.6008L45.8084 21.8069L46.1713 21.9193L46.2352 21.7132L45.8723 21.6008ZM50.3442 38.0307L46.1738 21.8158L45.8059 21.9104L49.9763 38.1253L50.3442 38.0307ZM64.4213 37.7176L50.158 37.8881L50.1625 38.2679L64.4258 38.0975L64.4213 37.7176Z" fill="#AEFFFD"/>
  </g>
  <defs>
    <filter id="filter0_ddi_1_1195" x="0.504219" y="0.535164" width="85.0018" height="76.4408" filterUnits="userSpaceOnUse" color-interpolation-filters="sRGB">
      <feFlood flood-opacity="0" result="BackgroundImageFix"/>
      <feColorMatrix in="SourceAlpha" type="matrix" values="0 0 0 0 0 0 0 0 0 0 0 0 0 0 0 0 0 0 127 0" result="hardAlpha"/>
      <feOffset/>
      <feGaussianBlur stdDeviation="4.80528"/>
      <feComposite in2="hardAlpha" operator="out"/>
      <feColorMatrix type="matrix" values="0 0 0 0 0.566667 0 0 0 0 1 0 0 0 0 0.987793 0 0 0 1 0"/>
      <feBlend mode="normal" in2="BackgroundImageFix" result="effect1_dropShadow_1_1195"/>
      <feColorMatrix in="SourceAlpha" type="matrix" values="0 0 0 0 0 0 0 0 0 0 0 0 0 0 0 0 0 0 127 0" result="hardAlpha"/>
      <feOffset/>
      <feGaussianBlur stdDeviation="10.4463"/>
      <feComposite in2="hardAlpha" operator="out"/>
      <feColorMatrix type="matrix" values="0 0 0 0 0.566667 0 0 0 0 1 0 0 0 0 0.987793 0 0 0 1 0"/>
      <feBlend mode="normal" in2="effect1_dropShadow_1_1195" result="effect2_dropShadow_1_1195"/>
      <feBlend mode="normal" in="SourceGraphic" in2="effect2_dropShadow_1_1195" result="shape"/>
      <feColorMatrix in="SourceAlpha" type="matrix" values="0 0 0 0 0 0 0 0 0 0 0 0 0 0 0 0 0 0 127 0" result="hardAlpha"/>
      <feOffset/>
      <feGaussianBlur stdDeviation="4.06454"/>
      <feComposite in2="hardAlpha" operator="arithmetic" k2="-1" k3="1"/>
      <feColorMatrix type="matrix" values="0 0 0 0 0.566667 0 0 0 0 1 0 0 0 0 0.987793 0 0 0 1 0"/>
      <feBlend mode="normal" in2="shape" result="effect3_innerShadow_1_1195"/>
    </filter>
  </defs>
</svg>