<svg xmlns="http://www.w3.org/2000/svg" width="46" height="38" viewBox="0 0 46 38" fill="none">
  <path fill-rule="evenodd" clip-rule="evenodd" d="M45.7767 18.3232L27.5806 37.4207L16.1083 33.8656L16.1083 33.8657L4.50104 30.2687L0.292524 4.22835L12.6812 12.9416L26.0688 1.24571L26.1367 1.02656L26.1703 1.15706L26.2717 1.06846L26.2039 1.28749L30.6319 18.5042L45.7767 18.3232Z" fill="#B9B9B9"/>
  <path d="M27.5806 37.4207L27.5209 37.6134C27.594 37.636 27.6737 37.6153 27.7266 37.5598L27.5806 37.4207ZM45.7767 18.3232L45.9227 18.4624C45.9787 18.4036 45.994 18.3171 45.9616 18.2427C45.9292 18.1683 45.8554 18.1206 45.7743 18.1216L45.7767 18.3232ZM16.1083 33.8656L16.168 33.673C16.0616 33.64 15.9486 33.6995 15.9157 33.8059L16.1083 33.8656ZM16.1083 33.8657L16.0486 34.0583C16.0997 34.0741 16.155 34.069 16.2023 34.0441C16.2496 34.0192 16.2851 33.9765 16.3009 33.9254L16.1083 33.8657ZM4.50104 30.2687L4.30196 30.3009C4.31418 30.3765 4.36818 30.4387 4.44135 30.4614L4.50104 30.2687ZM0.292524 4.22835L0.408542 4.06339C0.34219 4.01673 0.254335 4.01436 0.185565 4.05738C0.116794 4.1004 0.0804955 4.18044 0.0934376 4.26052L0.292524 4.22835ZM12.6812 12.9416L12.5651 13.1065C12.6412 13.16 12.7439 13.1546 12.8138 13.0934L12.6812 12.9416ZM26.0688 1.24571L26.2015 1.39759C26.2297 1.37301 26.2504 1.3411 26.2615 1.30541L26.0688 1.24571ZM26.1367 1.02656L26.3321 0.976328C26.3096 0.888967 26.2318 0.827152 26.1417 0.824953C26.0515 0.822754 25.9708 0.880706 25.9441 0.966868L26.1367 1.02656ZM26.1703 1.15706L25.975 1.2073C25.9924 1.27508 26.0438 1.32898 26.1106 1.3497C26.1775 1.37041 26.2503 1.35498 26.303 1.30894L26.1703 1.15706ZM26.2717 1.06846L26.4644 1.12816C26.4911 1.04199 26.4573 0.948578 26.3817 0.899399C26.3061 0.850219 26.207 0.857238 26.139 0.916586L26.2717 1.06846ZM26.2039 1.28749L26.0112 1.22779C26.0002 1.26348 25.9992 1.30154 26.0085 1.33772L26.2039 1.28749ZM30.6319 18.5042L30.4366 18.5544C30.4597 18.6444 30.5414 18.707 30.6343 18.7058L30.6319 18.5042ZM27.7266 37.5598L45.9227 18.4624L45.6307 18.1841L27.4345 37.2816L27.7266 37.5598ZM16.0486 34.0583L27.5209 37.6134L27.6402 37.2281L16.168 33.673L16.0486 34.0583ZM15.9157 33.8059L15.9157 33.806L16.3009 33.9254L16.3009 33.9253L15.9157 33.8059ZM16.168 33.6731L4.56074 30.0761L4.44135 30.4614L16.0486 34.0583L16.168 33.6731ZM4.70013 30.2366L0.491611 4.19617L0.0934376 4.26052L4.30196 30.3009L4.70013 30.2366ZM0.176507 4.39331L12.5651 13.1065L12.7972 12.7766L0.408542 4.06339L0.176507 4.39331ZM12.8138 13.0934L26.2015 1.39759L25.9361 1.09384L12.5485 12.7897L12.8138 13.0934ZM25.9441 0.966868L25.8762 1.18602L26.2615 1.30541L26.3294 1.08626L25.9441 0.966868ZM26.3656 1.10683L26.3321 0.976328L25.9414 1.0768L25.975 1.2073L26.3656 1.10683ZM26.303 1.30894L26.4044 1.22034L26.139 0.916586L26.0376 1.00519L26.303 1.30894ZM26.0791 1.00877L26.0112 1.22779L26.3965 1.34718L26.4644 1.12816L26.0791 1.00877ZM30.8272 18.454L26.3992 1.23725L26.0085 1.33772L30.4366 18.5544L30.8272 18.454ZM45.7743 18.1216L30.6295 18.3025L30.6343 18.7058L45.7791 18.5249L45.7743 18.1216Z" fill="#FCFCFC"/>
</svg>