<svg width="111" height="115" viewBox="0 0 111 115" fill="none" xmlns="http://www.w3.org/2000/svg">
<g id="Uniswap_Logo 1" clip-path="url(#clip0_1_568)">
<path id="Vector" d="M55.7417 27.4418C54.9815 27.0415 54.9525 27.0152 55.3503 27.0879C56.1125 27.2268 57.7703 27.9667 58.8528 28.6508C61.3797 30.2476 63.3098 32.7726 64.964 36.6457L65.4035 37.6748L66.4747 37.8626C70.9874 38.6545 75.1522 40.6963 78.2168 43.6194C79.0599 44.4236 80.3236 45.8817 80.4399 46.1845C80.4771 46.281 80.4265 46.8027 80.3274 47.3437C79.9847 49.2155 79.3796 50.5323 78.4805 51.3617C77.9913 51.8131 77.9142 51.9829 77.9513 52.5263C77.9809 52.9599 78.3307 53.3938 78.7728 53.5455C79.6778 53.856 81.1514 52.7402 82.2983 50.8763L82.7539 50.1361L82.9714 50.6574C84.1639 53.5178 84.6642 57.0308 84.1944 59.2467L84.0719 59.8243L83.9183 59.2078C83.6537 58.1469 83.2912 57.3617 82.7305 56.636C81.7198 55.3279 80.4391 54.56 76.8471 53.108C73.6028 51.7967 71.8295 50.8723 70.1821 49.6331C67.3794 47.5252 66.2576 45.6177 64.1921 39.4466C63.2746 36.7058 62.6591 35.152 61.9686 33.8337C60.3995 30.8381 58.5113 28.8999 55.7417 27.4418Z" fill="#FF007A"/>
<path id="Vector_2" d="M82.6691 42.1352C83.2527 40.7116 83.7814 39.8219 84.4817 39.0847C84.759 38.7928 85.0047 38.5603 85.0275 38.5682C85.0503 38.5761 84.8936 38.808 84.6792 39.0836C84.0965 39.8327 83.6488 40.9775 83.3828 42.3975C83.0458 44.1992 83.1047 44.4962 84.2921 46.9772C84.8491 48.1409 85.4675 49.5795 85.6664 50.1743L86.0282 51.2557L85.5823 50.4183C85.037 49.3943 83.693 47.3004 83.357 46.9515C83.1317 46.7176 83.0903 46.7059 82.8641 46.8144C82.6557 46.9144 82.5435 47.1338 82.146 48.2172C81.5267 49.9056 80.9172 50.9163 79.9777 51.8132C79.4697 52.2983 79.465 52.1558 79.9703 51.5848C80.3476 51.1585 80.4438 50.947 81.0095 49.3007C82.1458 45.9931 82.0242 45.0619 80.174 42.9007C79.7053 42.3532 78.9086 41.522 78.4036 41.0536C77.8986 40.5852 77.5044 40.1929 77.5275 40.1818C77.6155 40.1395 79.6518 41.5743 80.4424 42.2356C81.6184 43.2193 81.819 43.3634 82.0049 43.3577C82.1295 43.3539 82.2927 43.0536 82.6691 42.1352Z" fill="#FF007A"/>
<path id="Vector_3" d="M53.6844 38.4751C52.8219 35.6861 52.9903 31.9235 54.0883 29.4459L54.4282 28.6791L54.7759 28.8742C55.4293 29.2405 56.4776 30.0983 56.9234 30.6313C58.1464 32.0938 58.3925 33.5493 57.9883 36.9297C57.8699 37.9197 57.7718 39.0525 57.7704 39.4471C57.7682 40.0821 58.0422 41.6614 58.3397 42.7284C58.5542 43.4968 58.1683 43.6929 57.2507 43.2818C55.8493 42.6539 54.353 40.6373 53.6844 38.4751Z" fill="#FF007A"/>
<path id="Vector_4" d="M73.03 63.6876C66.4615 58.0183 64.6893 54.4514 66.2257 49.993C66.4518 49.3369 66.6596 48.8079 66.6872 48.8174C66.715 48.827 66.9351 49.1452 67.1764 49.5244C68.2973 51.2863 69.8461 52.4077 74.3957 54.7512C77.0729 56.1304 78.5451 57.0064 79.8419 57.992C83.9639 61.1247 85.7702 65.2218 84.9983 69.6885C84.7741 70.9865 83.8628 73.2512 83.1209 74.3547C82.5351 75.2264 81.1606 76.6877 80.9312 76.6828C80.8675 76.6815 80.8865 76.4445 80.9739 76.143C81.443 74.5276 81.1672 72.7024 80.2082 71.0759C79.1178 69.2266 77.4043 67.463 73.03 63.6876Z" fill="#FF007A"/>
<path id="Vector_5" d="M67.2465 63.1093C67.3452 62.5128 67.4279 61.7358 67.4299 61.3828L67.4337 60.741L67.6561 61.2677C67.9638 61.9964 68.1132 62.8447 68.121 63.9086C68.1268 64.7206 68.0813 64.9457 67.674 66.1216C67.274 67.276 67.1587 67.5071 66.6983 68.0775C65.9723 68.9769 65.2597 69.5466 64.2158 70.0618C62.34 70.9879 60.2828 71.1496 57.59 70.5828C57.1218 70.4842 55.7814 70.128 54.6111 69.7911C51.6616 68.9419 49.6479 68.5938 47.7284 68.6005C47.4524 68.6015 47.2144 68.5778 47.1997 68.548C47.1539 68.4557 48.5588 68.1673 49.6813 68.0387C51.2641 67.8573 52.7389 67.9689 55.9425 68.5124C57.5251 68.7808 59.1747 69.0134 59.6085 69.0293C63.7051 69.1787 66.6144 66.9237 67.2465 63.1093Z" fill="#FF007A"/>
<path id="Vector_6" d="M68.6172 70.468C68.3494 67.9597 68.8354 65.7948 70.0599 64.0413C70.1909 63.854 70.3449 63.7168 70.4023 63.7366C70.4596 63.7563 70.6543 63.9668 70.8348 64.2042C71.1938 64.6766 71.9483 65.5237 73.9756 67.7311C76.5054 70.4855 77.8293 72.3995 78.5221 74.3037C79.1286 75.9714 79.2703 77.6815 78.9609 79.6006C78.7854 80.6877 77.8306 83.1196 77.2096 84.0611C75.2512 87.0295 72.4266 88.9178 69.1406 89.4553C68.6591 89.534 68.2328 89.5881 68.193 89.5753C68.1534 89.5624 68.4299 89.24 68.8077 88.8587C70.4068 87.2456 71.1613 85.4005 71.1782 83.0632C71.1885 81.632 70.8478 79.7639 69.9824 76.507C68.9763 72.7203 68.7517 71.7274 68.6172 70.468Z" fill="#FF007A"/>
<path id="Vector_7" d="M35.9899 72.2592C39.6331 70.8644 43.7302 70.3935 47.1122 70.9811C48.5697 71.2342 50.8393 72.1152 52.006 72.8806C53.8761 74.1075 55.3076 75.9053 55.7823 77.6231C56.2463 79.3019 56.2384 80.6229 55.7474 83.3988C55.5537 84.4938 55.3729 85.5982 55.3456 85.8529C55.188 87.3248 55.4205 88.625 55.9854 89.4324C56.883 90.7147 58.9259 91.4793 61.2243 91.393C61.6145 91.3783 61.945 91.3891 61.9588 91.4172C62.0074 91.515 60.7525 91.8417 59.9089 91.9505C58.774 92.097 57.9391 92.0173 56.9149 91.6643C55.0576 91.0243 53.8387 89.555 53.211 87.1993C53.0875 86.7358 52.9068 85.4124 52.8094 84.2588C52.5108 80.7151 52.1628 79.5469 50.9388 77.978C49.8735 76.6127 48.1582 75.8429 46.603 76.0322C44.5602 76.2806 43.3074 78.3313 44.0758 80.1694C44.3811 80.8998 45.1438 81.7019 45.8709 82.0573C47.231 82.7223 48.8215 82.0704 49.3121 80.6468C49.6307 79.7224 49.4545 79.0715 48.6925 78.3574C47.6516 77.3821 46.1068 77.5704 45.7176 78.7203C45.5517 79.2105 45.6605 79.5918 46.0782 79.984C46.3461 80.2357 46.3497 80.2495 46.1094 80.1071C45.0603 79.4855 45.2614 78.0431 46.4785 77.4589C47.9397 76.7577 50.0301 78.0097 50.2976 79.7465C50.41 80.4759 50.0241 81.7186 49.4847 82.3635C48.2773 83.8067 46.126 84.043 44.4129 82.9205C43.2467 82.1564 42.8473 81.6265 41.8494 79.5204C40.1154 75.8607 39.2589 74.972 35.6054 73.044L34.9052 72.6745L35.9899 72.2592Z" fill="#FF007A"/>
<path id="Vector_8" fillRule="evenodd" clipRule="evenodd" d="M36.9321 3.98722C42.1612 17.8386 50.1661 39.3573 50.527 40.532C50.8248 41.5019 50.3721 42.1255 49.216 42.3381C48.573 42.4564 47.3603 42.3827 46.8061 42.1917C46.1795 41.9758 45.5768 41.433 45.2295 40.7717C44.9839 40.3044 44.2663 37.6253 42.6775 31.2442C41.4618 26.3617 40.4343 22.3048 40.3943 22.229C40.3018 22.0537 40.3026 22.0589 42.1215 31.9999C43.2636 38.2422 43.6204 40.4329 43.5353 40.68C43.362 41.1828 43.1328 41.3994 42.2696 41.8759C40.8304 42.6703 39.9182 43.8058 38.6577 46.3721C37.2446 49.2489 35.4532 51.0077 31.264 53.6307C28.8118 55.1662 28.3961 55.4592 27.6668 56.1674C26.7482 57.059 26.3896 57.6122 25.8587 58.9549C25.2975 60.3747 25.1019 61.3493 25.0707 62.8809C25.0432 64.2218 25.1742 65.1584 25.6617 67.1098C26.0825 68.7937 26.2455 69.9936 26.1077 70.3934C25.9981 70.7116 26.0591 70.7331 27.5528 70.9002C31.1273 71.2999 34.2726 70.9204 36.3404 69.8396C37.6201 69.1706 38.029 68.6986 38.5047 67.3414C38.8159 66.4536 38.8486 66.2566 38.7828 65.6615C38.6754 64.6929 38.1963 63.7532 36.9841 62.1347C35.396 60.0139 34.9009 58.5766 35.1929 56.9351C35.4325 55.5883 35.976 54.7671 37.9447 52.7769C39.9825 50.7168 40.6392 49.7659 41.6959 47.3457C42.3785 45.782 42.775 45.2092 43.4159 44.8607C44.0842 44.4971 44.5831 44.468 45.8407 44.719C47.8908 45.1284 49.3112 45.0553 50.6595 44.471C51.8291 43.9641 52.4714 43.3086 52.9351 42.1484L53.2866 41.2691L52.9878 40.5228C51.9059 37.8197 36.291 1.93465 36.1803 1.89648C36.1566 1.88833 36.4949 2.82922 36.9321 3.98722ZM30.0527 62.2255C30.706 61.6505 30.8068 60.6564 30.2809 59.9727C29.784 59.3266 28.716 59.1822 28.5254 59.7353C28.4673 59.9041 28.5191 60.0594 28.6937 60.2407C28.9876 60.5459 28.943 60.7597 28.5179 61.0819C28.0873 61.4081 27.9818 61.7889 28.2206 62.1547C28.6054 62.7444 29.4269 62.7761 30.0527 62.2255Z" fill="#FF007A"/>
<path id="Vector_9" fillRule="evenodd" clipRule="evenodd" d="M52.5078 47.5413C51.4919 47.5048 50.2647 48.164 49.6384 49.0829C49.2565 49.6435 48.9782 50.7618 49.1156 51.1841C49.3375 51.8662 49.6833 52.145 50.7554 52.5061C52.8542 53.2132 54.9818 52.9491 55.5774 51.9077C56.0657 51.0541 55.7025 49.5127 54.7928 48.5775C54.3233 48.0949 53.154 47.5647 52.5078 47.5413ZM54.301 50.2847C54.7808 49.9407 54.8092 49.3997 54.3748 48.8776C53.5474 47.8834 51.785 47.8628 51.447 48.8435C51.2788 49.3317 51.92 50.1484 52.6761 50.409C53.1792 50.5824 53.9705 50.5219 54.301 50.2847Z" fill="#FF007A"/>
</g>
<defs>
<clipPath id="clip0_1_568">
<rect width="93.1741" height="92.3347" fill="white" transform="translate(30.6772) rotate(19.0146)"/>
</clipPath>
</defs>
</svg>
